HIERARCHY
ROOT root
{
OFFSET 0.0 93.2929 0.0
CHANNELS 6 Xposition Yposition Zposition Zrotation Xrotation Yrotation
JOINT torso_1
{
OFFSET 0.0 5.07867 -1.15138
CHANNELS 6 Xposition Yposition Zposition Zrotation Xrotation Yrotation
JOINT torso_2
{
OFFSET 0.0 5.61661 1.07143
CHANNELS 6 Xposition Yposition Zposition Zrotation Xrotation Yrotation
JOINT torso_3
{
OFFSET -1.02604e-17 5.98978 0.11501
CHANNELS 6 Xposition Yposition Zposition Zrotation Xrotation Yrotation
JOINT torso_4
{
OFFSET -1.10457e-17 6.50583 -0.443523
CHANNELS 6 Xposition Yposition Zposition Zrotation Xrotation Yrotation
JOINT torso_5
{
OFFSET -1.97295e-17 7.60548 -1.50593
CHANNELS 6 Xposition Yposition Zposition Zrotation Xrotation Yrotation
JOINT torso_6
{
OFFSET -2.53307e-17 9.49737 -0.914492
CHANNELS 6 Xposition Yposition Zposition Zrotation Xrotation Yrotation
JOINT torso_7
{
OFFSET -2.90401e-17 10.5513 1.57691
CHANNELS 6 Xposition Yposition Zposition Zrotation Xrotation Yrotation
JOINT neck_1
{
OFFSET -1.29193e-17 4.78644 0.715339
CHANNELS 6 Xposition Yposition Zposition Zrotation Xrotation Yrotation
JOINT neck_2
{
OFFSET -1.8116e-17 4.82109 0.421791
CHANNELS 6 Xposition Yposition Zposition Zrotation Xrotation Yrotation
JOINT head
{
OFFSET -2.00958e-17 4.83041 0.765062
CHANNELS 6 Xposition Yposition Zposition Zrotation Xrotation Yrotation
End Site
{
OFFSET 0.0 0.1 0.0
}
}
}
}
JOINT l_shoulder
{
OFFSET 1.23299 -7.60731 7.53374
CHANNELS 6 Xposition Yposition Zposition Zrotation Xrotation Yrotation
JOINT l_up_arm
{
OFFSET 12.9547 3.2495 -3.26872
CHANNELS 6 Xposition Yposition Zposition Zrotation Xrotation Yrotation
JOINT l_low_arm
{
OFFSET 29.2081 0.0598081 0.137039
CHANNELS 6 Xposition Yposition Zposition Zrotation Xrotation Yrotation
JOINT l_hand
{
OFFSET 24.234 0.0496219 0.113701
CHANNELS 6 Xposition Yposition Zposition Zrotation Xrotation Yrotation
End Site
{
OFFSET 0.1 0.0 0.0
}
}
}
}
}
JOINT r_shoulder
{
OFFSET -1.23299 -7.60729 7.53365
CHANNELS 6 Xposition Yposition Zposition Zrotation Xrotation Yrotation
JOINT r_up_arm
{
OFFSET -12.9547 3.2495 -3.26872
CHANNELS 6 Xposition Yposition Zposition Zrotation Xrotation Yrotation
JOINT r_low_arm
{
OFFSET -29.2081 0.0598081 0.137039
CHANNELS 6 Xposition Yposition Zposition Zrotation Xrotation Yrotation
JOINT r_hand
{
OFFSET -24.234 0.0496218 0.113702
CHANNELS 6 Xposition Yposition Zposition Zrotation Xrotation Yrotation
End Site
{
OFFSET -0.1 0.0 0.0
}
}
}
}
}
}
}
}
}
}
}
}
JOINT l_up_leg
{
OFFSET 9.23673 -4.20556 2.0327
CHANNELS 6 Xposition Yposition Zposition Zrotation Xrotation Yrotation
JOINT l_low_leg
{
OFFSET -0.852353 -38.7721 -0.655187
CHANNELS 6 Xposition Yposition Zposition Zrotation Xrotation Yrotation
JOINT l_foot
{
OFFSET -2.32622 -40.4017 -6.04875
CHANNELS 6 Xposition Yposition Zposition Zrotation Xrotation Yrotation
JOINT l_toes
{
OFFSET 0.779096 -9.8844 12.4959
CHANNELS 6 Xposition Yposition Zposition Zrotation Xrotation Yrotation
End Site
{
OFFSET 0.0 0.0 0.1
}
}
}
}
}
JOINT r_up_leg
{
OFFSET -9.23673 -4.20556 2.0327
CHANNELS 6 Xposition Yposition Zposition Zrotation Xrotation Yrotation
JOINT r_low_leg
{
OFFSET 0.852353 -38.7721 -0.655187
CHANNELS 6 Xposition Yposition Zposition Zrotation Xrotation Yrotation
JOINT r_foot
{
OFFSET 2.32622 -40.4017 -6.04875
CHANNELS 6 Xposition Yposition Zposition Zrotation Xrotation Yrotation
JOINT r_toes
{
OFFSET -0.779096 -9.8844 12.4959
CHANNELS 6 Xposition Yposition Zposition Zrotation Xrotation Yrotation
End Site
{
OFFSET 0.0 0.0 0.1
}
}
}
}
}
}
MOTION
Frames: 6
Frame Time: 0.016667
6.163000000000011 93.067 1.2175999999999974 -1.16985 -1.54695 1.37099 0.0 5.07867 -1.15138 0.083444 0.00105755 0.000102715 0.0 5.61661 1.07143 0.114921 0.401191 0.0662512 -1.02604e-17 5.98978 0.11501 0.104084 0.854222 0.0939228 -1.10457e-17 6.50583 -0.443523 0.123946 1.28638 0.0726776 -1.97295e-17 7.60548 -1.50593 0.0825589 1.07899 0.00796507 -2.53307e-17 9.49737 -0.914492 0.0659432 0.958343 0.0130363 -2.90401e-17 10.5513 1.57691 0.00014246 0.158152 -0.00080488 -1.29193e-17 4.78644 0.715339 0.707888 2.13132 1.71154 -1.8116e-17 4.82109 0.421791 -1.19523 0.270963 0.819563 -2.00958e-17 4.83041 0.765062 -1.09875 5.98409 -0.998525 1.23299 -7.60731 7.53374 2.82413 1.86053 -2.9097 12.9547 3.2495 -3.26872 -65.4591 32.9556 -21.5292 29.2081 0.0598081 0.137039 11.796 -14.2999 -101.648 24.234 0.0496219 0.113701 -2.3796 -35.7461 -7.99425 -1.23299 -7.60729 7.53365 -7.05315 0.184393 1.59217 -12.9547 3.2495 -3.26872 55.3989 44.8896 34.8734 -29.2081 0.0598081 0.137039 -11.6795 -14.8049 104.172 -24.234 0.0496218 0.113702 0.455187 -27.3443 3.25697 9.23673 -4.20556 2.0327 -1.27102 -0.756811 -16.909 -0.852353 -38.7721 -0.655187 0.205561 -0.766642 0.0147577 -2.32622 -40.4017 -6.04875 1.60918 0.888996 14.9339 0.779096 -9.8844 12.4959 -1.53074e-16 -8.01475e-16 1.87606e-17 -9.23673 -4.20556 2.0327 -4.47483 -6.08997 11.6007 0.852353 -38.7721 -0.655187 2.76735 10.2759 -0.068997 2.32622 -40.4017 -6.04875 3.42431 0.124125 -15.7623 -0.779096 -9.8844 12.4959 -4.01555e-16 -5.71257e-16 -1.27532e-14
6.199000000000012 93.0592 1.3449999999999989 -1.12039 -1.56376 1.24947 0.0 5.07867 -1.15138 0.0726438 -0.0788832 0.00820017 0.0 5.61661 1.07143 0.104892 0.344755 0.0736477 -1.02604e-17 5.98978 0.11501 0.0959323 0.823461 0.100807 -1.10457e-17 6.50583 -0.443523 0.117422 1.29761 0.0799776 -1.97295e-17 7.60548 -1.50593 0.0805582 1.11553 0.0150194 -2.53307e-17 9.49737 -0.914492 0.0672587 1.01324 0.019243 -2.90401e-17 10.5513 1.57691 2.94205e-05 0.157307 -0.000681658 -1.29193e-17 4.78644 0.715339 0.702901 2.14623 1.70878 -1.8116e-17 4.82109 0.421791 -1.20595 0.329711 0.817469 -2.00958e-17 4.83041 0.765062 -1.09998 6.07741 -0.969747 1.23299 -7.60731 7.53374 2.78563 1.84898 -2.89058 12.9547 3.2495 -3.26872 -65.4283 33.0313 -21.4887 29.2081 0.0598081 0.137039 11.7965 -14.2977 -101.637 24.234 0.0496219 0.113701 -2.31128 -35.8109 -7.94105 -1.23299 -7.60729 7.53365 -6.98172 0.186713 1.60034 -12.9547 3.2495 -3.26872 55.3672 44.9524 34.8454 -29.2081 0.0598081 0.137039 -11.6825 -14.7929 104.112 -24.234 0.0496218 0.113702 0.456009 -27.3378 3.21786 9.23673 -4.20556 2.0327 -1.33624 -0.649473 -16.8265 -0.852353 -38.7721 -0.655187 0.206145 -0.768817 0.0148035 -2.32622 -40.4017 -6.04875 1.65283 0.851861 14.9302 0.779096 -9.8844 12.4959 4.96962e-17 -7.95139e-16 1.2424e-17 -9.23673 -4.20556 2.0327 -4.55941 -6.29581 11.7349 0.852353 -38.7721 -0.655187 2.91498 10.8145 -0.0866088 2.32622 -40.4017 -6.04875 3.47708 0.0350387 -15.7785 -0.779096 -9.8844 12.4959 1.86827e-16 -5.99997e-16 -1.27756e-14
6.242000000000019 93.0411 1.4797000000000011 -1.05602 -1.60435 1.13282 0.0 5.07867 -1.15138 0.0586072 -0.14856 0.0163532 0.0 5.61661 1.07143 0.0926844 0.295238 0.0803695 -1.02604e-17 5.98978 0.11501 0.0864597 0.795591 0.106826 -1.10457e-17 6.50583 -0.443523 0.110459 1.3057 0.0859948 -1.97295e-17 7.60548 -1.50593 0.0783888 1.14534 0.0204526 -2.53307e-17 9.49737 -0.914492 0.0683435 1.05924 0.0236618 -2.90401e-17 10.5513 1.57691 -0.000113839 0.156565 -0.000659357 -1.29193e-17 4.78644 0.715339 0.697402 2.17645 1.70646 -1.8116e-17 4.82109 0.421791 -1.21853 0.389621 0.814786 -2.00958e-17 4.83041 0.765062 -1.10558 6.19464 -0.947298 1.23299 -7.60731 7.53374 2.77855 1.83255 -2.86489 12.9547 3.2495 -3.26872 -65.4026 33.1042 -21.4838 29.2081 0.0598081 0.137039 11.7983 -14.2889 -101.593 24.234 0.0496219 0.113701 -2.23202 -35.8952 -7.87987 -1.23299 -7.60729 7.53365 -6.95625 0.186615 1.59924 -12.9547 3.2495 -3.26872 55.3328 45.0027 34.8733 -29.2081 0.0598081 0.137039 -11.6876 -14.7729 104.011 -24.234 0.0496218 0.113702 0.452458 -27.3676 3.19254 9.23673 -4.20556 2.0327 -1.41614 -0.438893 -16.8215 -0.852353 -38.7721 -0.655187 0.243589 -0.908365 0.0177875 -2.32622 -40.4017 -6.04875 1.68239 0.8234 14.9312 0.779096 -9.8844 12.4959 1.11972e-16 -7.93193e-16 1.04779e-17 -9.23673 -4.20556 2.0327 -4.65688 -6.52432 11.9869 0.852353 -38.7721 -0.655187 3.08951 11.4492 -0.109222 2.32622 -40.4017 -6.04875 3.5163 -0.0874482 -15.7951 -0.779096 -9.8844 12.4959 6.82545e-16 -6.20003e-16 -1.27956e-14
6.295999999999992 93.0181 1.6114999999999995 -0.994331 -1.63537 1.02315 0.0 5.07867 -1.15138 0.0438165 -0.194281 0.0242445 0.0 5.61661 1.07143 0.0801649 0.261003 0.086443 -1.02604e-17 5.98978 0.11501 0.0772107 0.773016 0.112169 -1.10457e-17 6.50583 -0.443523 0.104208 1.30223 0.0912118 -1.97295e-17 7.60548 -1.50593 0.0770643 1.15464 0.0247331 -2.53307e-17 9.49737 -0.914492 0.0699357 1.0786 0.0266946 -2.90401e-17 10.5513 1.57691 -0.000309261 0.156247 -0.000685603 -1.29193e-17 4.78644 0.715339 0.691665 2.21753 1.6951 -1.8116e-17 4.82109 0.421791 -1.23743 0.438976 0.807269 -2.00958e-17 4.83041 0.765062 -1.11251 6.32504 -0.922826 1.23299 -7.60731 7.53374 2.80843 1.81947 -2.82527 12.9547 3.2495 -3.26872 -65.398 33.1603 -21.4769 29.2081 0.0598081 0.137039 11.8 -14.2806 -101.552 24.234 0.0496219 0.113701 -2.17928 -35.9949 -7.84201 -1.23299 -7.60729 7.53365 -6.98323 0.193472 1.5792 -12.9547 3.2495 -3.26872 55.3059 45.0465 34.9261 -29.2081 0.0598081 0.137039 -11.6936 -14.7488 103.89 -24.234 0.0496218 0.113702 0.441586 -27.4277 3.20656 9.23673 -4.20556 2.0327 -1.49853 -0.227719 -16.8586 -0.852353 -38.7721 -0.655187 0.286573 -1.06852 0.0213248 -2.32622 -40.4017 -6.04875 1.71945 0.784168 14.9327 0.779096 -9.8844 12.4959 4.4328e-16 -7.82839e-16 1.24557e-19 -9.23673 -4.20556 2.0327 -4.75029 -6.77215 12.3571 0.852353 -38.7721 -0.655187 3.26976 12.1021 -0.134606 2.32622 -40.4017 -6.04875 3.56275 -0.217742 -15.8124 -0.779096 -9.8844 12.4959 -9.73994e-16 -5.4753e-16 -1.27231e-14
6.362000000000023 93.0039 1.7272999999999996 -0.948363 -1.5868 0.850732 0.0 5.07867 -1.15138 0.0336331 -0.297531 0.0335815 0.0 5.61661 1.07143 0.0727578 0.189755 0.098068 -1.02604e-17 5.98978 0.11501 0.0746505 0.730835 0.124225 -1.10457e-17 6.50583 -0.443523 0.106317 1.30989 0.102716 -1.97295e-17 7.60548 -1.50593 0.0861243 1.19874 0.0326055 -2.53307e-17 9.49737 -0.914492 0.0849613 1.13915 0.0279941 -2.90401e-17 10.5513 1.57691 -0.000325937 0.155987 -0.00135938 -1.29193e-17 4.78644 0.715339 0.709784 2.2306 1.75989 -1.8116e-17 4.82109 0.421791 -1.19754 0.449298 0.835188 -2.00958e-17 4.83041 0.765062 -1.22672 6.47202 -0.982605 1.23299 -7.60731 7.53374 2.81381 1.76301 -2.79506 12.9547 3.2495 -3.26872 -65.4726 33.1543 -21.4734 29.2081 0.0598081 0.137039 11.8065 -14.2488 -101.394 24.234 0.0496219 0.113701 -2.21018 -36.0629 -7.90908 -1.23299 -7.60729 7.53365 -7.06867 0.155843 1.49379 -12.9547 3.2495 -3.26872 55.3076 45.1441 35.0368 -29.2081 0.0598081 0.137039 -11.7013 -14.7179 103.735 -24.234 0.0496218 0.113702 0.487168 -27.4867 3.25389 9.23673 -4.20556 2.0327 -1.58917 0.218694 -16.6504 -0.852353 -38.7721 -0.655187 0.496386 -1.84951 0.0403015 -2.32622 -40.4017 -6.04875 1.73994 0.96252 14.9368 0.779096 -9.8844 12.4959 1.19944e-16 -7.92943e-16 1.02288e-17 -9.23673 -4.20556 2.0327 -4.71637 -6.61471 13.6064 0.852353 -38.7721 -0.655187 3.20117 11.8539 -0.124704 2.32622 -40.4017 -6.04875 3.47022 -0.383699 -15.807 -0.779096 -9.8844 12.4959 -6.66601e-16 -5.56887e-16 -1.27427e-14
6.437000000000012 93.0202 1.7411999999999992 -0.931206 -1.51729 0.622239 0.0 5.07867 -1.15138 0.0398978 -0.3562 0.0416959 0.0 5.61661 1.07143 0.0784345 0.148269 0.111967 -1.02604e-17 5.98978 0.11501 0.0795525 0.706318 0.138712 -1.10457e-17 6.50583 -0.443523 0.109308 1.31368 0.116403 -1.97295e-17 7.60548 -1.50593 0.0910364 1.22795 0.0424108 -2.53307e-17 9.49737 -0.914492 0.0918875 1.1782 0.0322113 -2.90401e-17 10.5513 1.57691 -0.000556624 0.156239 -0.00217548 -1.29193e-17 4.78644 0.715339 0.721188 2.18237 1.78879 -1.8116e-17 4.82109 0.421791 -1.21153 0.466517 0.845267 -2.00958e-17 4.83041 0.765062 -1.29641 6.59312 -0.946145 1.23299 -7.60731 7.53374 2.85483 1.71876 -2.79231 12.9547 3.2495 -3.26872 -65.5869 33.0598 -21.3093 29.2081 0.0598081 0.137039 11.8075 -14.2437 -101.369 24.234 0.0496219 0.113701 -2.27528 -36.1374 -8.04444 -1.23299 -7.60729 7.53365 -7.18835 0.130568 1.4212 -12.9547 3.2495 -3.26872 55.3265 45.2088 35.1298 -29.2081 0.0598081 0.137039 -11.7072 -14.6941 103.615 -24.234 0.0496218 0.113702 0.596902 -27.5426 3.35834 9.23673 -4.20556 2.0327 -1.64859 0.484287 -16.3852 -0.852353 -38.7721 -0.655187 0.664868 -2.47561 0.0575905 -2.32622 -40.4017 -6.04875 1.70902 1.23118 14.9304 0.779096 -9.8844 12.4959 -2.11361e-16 -8.03297e-16 2.05821e-17 -9.23673 -4.20556 2.0327 -4.63332 -6.47826 15.1054 0.852353 -38.7721 -0.655187 3.08484 11.4323 -0.108593 2.32622 -40.4017 -6.04875 3.38664 -0.378865 -15.8112 -0.779096 -9.8844 12.4959 -3.35297e-16 -5.75398e-16 -1.27552e-14
